<?xml version="1.0" encoding="UTF-8" standalone="no"?>
<!-- Created with Inkscape (http://www.inkscape.org/) -->

<svg
   width="29.370373"
   height="236.44324"
   viewBox="0 0 7.7709109 62.558941"
   version="1.1"
   id="svg5"
   inkscape:version="1.2.1 (9c6d41e410, 2022-07-14)"
   sodipodi:docname="clock_hand_minute.svg"
   xmlns:inkscape="http://www.inkscape.org/namespaces/inkscape"
   xmlns:sodipodi="http://sodipodi.sourceforge.net/DTD/sodipodi-0.dtd"
   xmlns="http://www.w3.org/2000/svg"
   xmlns:svg="http://www.w3.org/2000/svg">
  <sodipodi:namedview
     id="namedview7"
     pagecolor="#ffffff"
     bordercolor="#000000"
     borderopacity="0.25"
     inkscape:showpageshadow="2"
     inkscape:pageopacity="0.0"
     inkscape:pagecheckerboard="0"
     inkscape:deskcolor="#d1d1d1"
     inkscape:document-units="px"
     showgrid="false"
     inkscape:zoom="5.7299663"
     inkscape:cx="32.111882"
     inkscape:cy="208.98901"
     inkscape:window-width="1920"
     inkscape:window-height="991"
     inkscape:window-x="-9"
     inkscape:window-y="-9"
     inkscape:window-maximized="1"
     inkscape:current-layer="layer1"
     showguides="true">
    <sodipodi:guide
       position="3.7665505,51.579997"
       orientation="-1,0"
       id="guide250"
       inkscape:locked="false"
       inkscape:label=""
       inkscape:color="rgb(0,134,229)" />
    <sodipodi:guide
       position="-49.150114,3.7429269"
       orientation="0,1"
       id="guide252"
       inkscape:locked="false"
       inkscape:label=""
       inkscape:color="rgb(0,134,229)" />
  </sodipodi:namedview>
  <defs
     id="defs2" />
  <g
     inkscape:label="Layer 1"
     inkscape:groupmode="layer"
     id="layer1"
     transform="translate(-102.06678,-47.017323)">
    <path
       style="fill:#ffffff;fill-opacity:1;stroke:#000000;stroke-width:0.25;stroke-linecap:round;stroke-linejoin:round;stroke-dasharray:none;stop-color:#000000"
       d="m 104.36819,109.61361 c -0.79889,-8.7361 1.42559,-23.398777 -2.30141,-30.533085 3.14023,-12.064029 2.33472,-18.509033 3.7222,-32.063202 1.22196,12.508341 0.41275,19.951313 4.04871,31.9979 -3.58126,7.334533 -1.73717,21.785187 -2.58175,30.598387 z"
       id="path1882"
       sodipodi:nodetypes="cccccc" />
    <path
       id="path1880"
       style="display:none;fill:#4f4f4f;fill-opacity:1;stroke:#000000;stroke-width:0;stroke-linecap:round;stroke-linejoin:round;stroke-dasharray:none;stop-color:#000000"
       d="m 105.78889,102.52397 a 3.5262988,3.5262988 0 0 0 -3.5264,3.5264 3.5262988,3.5262988 0 0 0 3.5264,3.52589 3.5262988,3.5262988 0 0 0 3.5264,-3.52589 3.5262988,3.5262988 0 0 0 -3.5264,-3.5264 z m 0,1.98541 a 1.5407578,1.5407578 0 0 1 1.54099,1.54099 1.5407578,1.5407578 0 0 1 -1.54099,1.54048 1.5407578,1.5407578 0 0 1 -1.54047,-1.54048 1.5407578,1.5407578 0 0 1 1.54047,-1.54099 z" />
  </g>
</svg>
