<?xml version="1.0" encoding="UTF-8" standalone="no"?>
<!-- Created with Inkscape (http://www.inkscape.org/) -->

<svg
   width="800"
   height="800"
   viewBox="0 0 211.66666 211.66667"
   version="1.1"
   id="svg5"
   inkscape:version="1.2.1 (9c6d41e410, 2022-07-14)"
   sodipodi:docname="clock_empty.svg"
   xmlns:inkscape="http://www.inkscape.org/namespaces/inkscape"
   xmlns:sodipodi="http://sodipodi.sourceforge.net/DTD/sodipodi-0.dtd"
   xmlns="http://www.w3.org/2000/svg"
   xmlns:svg="http://www.w3.org/2000/svg">
  <sodipodi:namedview
     id="namedview7"
     pagecolor="#ffffff"
     bordercolor="#000000"
     borderopacity="0.25"
     inkscape:showpageshadow="2"
     inkscape:pageopacity="0.0"
     inkscape:pagecheckerboard="0"
     inkscape:deskcolor="#d1d1d1"
     inkscape:document-units="px"
     showgrid="false"
     inkscape:zoom="1.0129245"
     inkscape:cx="340.59794"
     inkscape:cy="423.03251"
     inkscape:window-width="1920"
     inkscape:window-height="991"
     inkscape:window-x="-9"
     inkscape:window-y="-9"
     inkscape:window-maximized="1"
     inkscape:current-layer="layer1"
     showguides="true">
    <sodipodi:guide
       position="105.83333,153.6704"
       orientation="-1,0"
       id="guide250"
       inkscape:locked="false"
       inkscape:label=""
       inkscape:color="rgb(0,134,229)" />
    <sodipodi:guide
       position="52.916666,105.83333"
       orientation="0,1"
       id="guide252"
       inkscape:locked="false"
       inkscape:label=""
       inkscape:color="rgb(0,134,229)" />
  </sodipodi:namedview>
  <defs
     id="defs2" />
  <g
     inkscape:label="Layer 1"
     inkscape:groupmode="layer"
     id="layer1">
    <circle
       style="fill:#bcbcbc;stroke:#000000;stroke-width:5.29166;stroke-linecap:round;stroke-linejoin:round;stroke-dasharray:none;stroke-opacity:1;stop-color:#000000;fill-opacity:1"
       id="circle898"
       cx="105.60391"
       cy="105.97332"
       r="103.1875" />
    <circle
       style="fill:#ffffff;stroke:#000000;stroke-width:2.64583333;stroke-linecap:round;stroke-linejoin:round;stroke-dasharray:none;stroke-opacity:1;stop-color:#000000;fill-opacity:1"
       id="path234"
       cx="105.60391"
       cy="105.97332"
       r="92.474815" />
    <path
       id="path1175"
       style="display:inline;fill:none;stroke:#000000;stroke-width:7.9375;stroke-linecap:round;stroke-linejoin:round;stop-color:#000000"
       d="M 105.82572 23.949913 L 105.83549 14.406626 " />
    <path
       id="path1823"
       style="display:inline;fill:none;stroke:#000000;stroke-width:7.9375;stroke-linecap:round;stroke-linejoin:round;stop-color:#000000"
       d="M 105.64774 198.3693 L 105.65831 187.99795 " />
    <path
       id="path1821"
       style="display:inline;fill:none;stroke:#000000;stroke-width:7.9375;stroke-linecap:round;stroke-linejoin:round;stop-color:#000000"
       d="M 187.61173 106.47152 L 197.72294 106.48181 " />
    <path
       id="path1815"
       style="display:inline;fill:none;stroke:#000000;stroke-width:7.9375;stroke-linecap:round;stroke-linejoin:round;stop-color:#000000"
       d="M 13.760262 106.29419 L 23.589868 106.30418 " />
    <path
       id="path1813"
       style="display:inline;fill:none;stroke:#000000;stroke-width:7.9375;stroke-linecap:round;stroke-linejoin:round;stop-color:#000000"
       d="M 64.805832 177.12408 L 59.669647 185.99929 " />
    <path
       id="path1807"
       style="display:inline;fill:none;stroke:#000000;stroke-width:7.9375;stroke-linecap:round;stroke-linejoin:round;stop-color:#000000"
       d="M 151.81355 26.776802 L 146.96892 35.148202 " />
    <path
       id="path1805"
       style="display:inline;fill:none;stroke:#000000;stroke-width:7.9375;stroke-linecap:round;stroke-linejoin:round;stop-color:#000000"
       d="M 34.750324 147.27835 L 26.036496 152.29744 " />
    <path
       id="path1799"
       style="display:inline;fill:none;stroke:#000000;stroke-width:7.9375;stroke-linecap:round;stroke-linejoin:round;stop-color:#000000"
       d="M 185.4467 60.478661 L 176.89357 65.405185 " />
    <path
       id="path1797"
       style="display:inline;fill:none;stroke:#000000;stroke-width:7.9375;stroke-linecap:round;stroke-linejoin:round;stop-color:#000000"
       d="M 34.470375 65.142568 L 26.13035 60.3161 " />
    <path
       id="path1791"
       style="display:inline;fill:none;stroke:#000000;stroke-width:7.9375;stroke-linecap:round;stroke-linejoin:round;stop-color:#000000"
       d="M 185.35284 152.46 L 176.44198 147.30319 " />
    <path
       id="path1789"
       style="display:inline;fill:none;stroke:#000000;stroke-width:7.9375;stroke-linecap:round;stroke-linejoin:round;stop-color:#000000"
       d="M 64.587471 34.938747 L 59.832209 26.682949 " />
    <path
       id="path1783"
       style="display:inline;fill:none;stroke:#000000;stroke-width:7.9375;stroke-linecap:round;stroke-linejoin:round;stop-color:#000000"
       d="M 151.65099 186.09315 L 146.46556 177.09053 " />
    <path
       id="path1215"
       style="fill:none;stroke:#000000;stroke-width:2;stroke-linecap:round;stroke-linejoin:round;stroke-dasharray:none;stop-color:#000000"
       d="m 142.95778,190.31022 -2.17474,-4.90403 M 70.347491,26.574702 68.52539,22.465881 m 111.40746,137.992799 -4.27211,-3.11352 M 35.245263,55.010285 31.550332,52.317417 m 158.113428,16.854432 -4.4153,1.958007 m -158.8862,70.459814 -4.542838,2.01457 M 159.81222,32.19679 157.08888,35.933533 M 54.722647,176.39202 51.670958,180.5793 m -37.216195,-83.922168 4.719129,0.503031 m 172.770588,18.416807 5.08394,0.54192 M 96.010682,197.6748 96.575206,192.37894 M 114.99798,19.553142 115.47257,15.10116" />
    <path
       id="path1263"
       style="fill:none;stroke:#000000;stroke-width:2;stroke-linecap:round;stroke-linejoin:round;stroke-dasharray:none;stop-color:#000000"
       d="m 134.11575,193.69717 -1.65805,-5.10195 M 78.756603,23.353577 77.367407,19.078931 m 96.601493,148.733949 -3.92869,-3.537 M 40.912178,48.022348 37.514268,44.96322 M 193.0507,78.013873 188.45721,79.506685 M 23.158645,133.22628 18.432466,134.76222 M 167.16641,38.160732 164.07267,41.597093 M 47.783508,170.76467 l -3.466753,3.85069 m -28.37417,-87.30912 4.642216,0.986431 m 169.954709,36.114419 5.00108,1.06269 m -108.880799,70.71719 1.107001,-5.20954 m 36.126048,-170.009015 0.93062,-4.37942" />
    <path
       id="path1265"
       style="fill:none;stroke:#000000;stroke-width:2;stroke-linecap:round;stroke-linejoin:round;stroke-dasharray:none;stop-color:#000000"
       d="m 124.76944,196.1985 -1.1119,-5.24812 M 87.645309,20.974713 86.713708,16.577602 m 80.411712,158.074648 -3.53463,-3.93083 M 47.414823,41.5236 44.357737,38.123852 M 195.55202,87.36018 190.82693,88.361266 M 20.792712,124.3859 l -4.86158,1.03001 M 174.00577,45.004207 170.56756,48.095888 M 41.330142,164.30743 l -3.852761,3.46445 m -19.027862,-89.810444 4.51262,1.469517 m 165.210051,53.800507 4.86146,1.58312 m -115.718661,58.86545 1.649124,-5.0641 M 132.7819,23.3531 l 1.38636,-4.257157" />
    <path
       id="path1267"
       style="fill:none;stroke:#000000;stroke-width:2;stroke-linecap:round;stroke-linejoin:round;stroke-dasharray:none;stop-color:#000000"
       d="m 115.5557,197.66597 -0.57349,-5.33387 M 96.407949,19.579085 95.927452,15.110127 m 63.952368,165.419863 -3.11741,-4.26928 M 54.299571,35.938585 51.603336,32.24611 M 197.0195,96.573923 192.2172,97.090258 M 19.404674,115.67091 14.463658,116.20217 M 179.88351,52.249805 176.14926,54.976553 M 35.784135,157.47077 l -4.184496,3.05551 m -9.814118,-91.277917 4.340164,1.919945 m 158.896295,70.290982 4.67568,2.06837 m -121.095736,46.81637 2.154598,-4.87057 m 70.313528,-158.947047 1.81129,-4.094461" />
    <path
       id="circle1271"
       style="fill:#bcbcbc;stroke:#000000;stroke-width:0;stroke-linecap:round;stroke-linejoin:round;stroke-dasharray:none;stroke-opacity:1;stop-color:#000000;fill-opacity:1"
       d="M 105.60389 2.7858764 A 103.1875 103.1875 0 0 0 2.41639 105.97338 A 103.1875 103.1875 0 0 0 105.60389 209.16087 A 103.1875 103.1875 0 0 0 208.79139 105.97338 A 103.1875 103.1875 0 0 0 105.60389 2.7858764 z M 105.60389 13.498401 A 92.474815 92.474815 0 0 1 198.07886 105.97338 A 92.474815 92.474815 0 0 1 105.60389 198.44835 A 92.474815 92.474815 0 0 1 13.128914 105.97338 A 92.474815 92.474815 0 0 1 105.60389 13.498401 z " />
  </g>
</svg>
